<svg width="24" height="24" viewBox="0 0 24 24" fill="none" xmlns="http://www.w3.org/2000/svg">
<path d="M12 4.5C12 3.11929 10.8807 2 9.5 2C8.11929 2 7 3.11929 7 4.5C7 5.88071 8.11929 7 9.5 7" stroke="black" stroke-width="2" stroke-linecap="round"/>
<path d="M12 4.5V19" stroke="black" stroke-width="2" stroke-linejoin="round"/>
<path d="M6 11.5C6 10.1193 4.88071 9 3.5 9C2.11929 9 1 10.1193 1 11.5C1 12.8807 2.11929 14 3.5 14" stroke="black" stroke-width="2" stroke-linecap="round"/>
<path d="M3.58171 14.0125C2.36637 14.6677 1.9123 16.1841 2.56752 17.3994C3.22275 18.6147 4.73913 19.0688 5.95447 18.4136C7.16981 17.7584 7.62388 16.242 6.96866 15.0266" stroke="black" stroke-width="2" stroke-linecap="round"/>
<path d="M7.30341 5.76777C6.3271 4.79146 4.74419 4.79146 3.76788 5.76777C3.02351 6.51214 2.84667 7.60913 3.23736 8.52104" stroke="black" stroke-width="2" stroke-linecap="round"/>
<path d="M12 19C12 20.3807 10.8807 21.5 9.5 21.5C8.11929 21.5 7 20.3807 7 19L7 17.5" stroke="black" stroke-width="2" stroke-linecap="round"/>
<path d="M12 19L12 4.5" stroke="black" stroke-width="2" stroke-linejoin="round"/>
<path d="M15 8V9C15.2652 9 15.5196 8.89464 15.7071 8.70711L15 8ZM17.7071 6.70711C18.0976 6.31658 18.0976 5.68342 17.7071 5.29289C17.3166 4.90237 16.6834 4.90237 16.2929 5.29289L17.7071 6.70711ZM12 9H15V7H12V9ZM15.7071 8.70711L17.7071 6.70711L16.2929 5.29289L14.2929 7.29289L15.7071 8.70711Z" fill="black"/>
<path d="M12 12H19" stroke="black" stroke-width="2" stroke-linecap="round" stroke-linejoin="round"/>
<path d="M15 16V15C15.2652 15 15.5196 15.1054 15.7071 15.2929L15 16ZM17.7071 17.2929C18.0976 17.6834 18.0976 18.3166 17.7071 18.7071C17.3166 19.0976 16.6834 19.0976 16.2929 18.7071L17.7071 17.2929ZM12 15H15V17H12V15ZM15.7071 15.2929L17.7071 17.2929L16.2929 18.7071L14.2929 16.7071L15.7071 15.2929Z" fill="black"/>
<path d="M21 14C22.1046 14 23 13.1046 23 12C23 10.8954 22.1046 10 21 10C19.8954 10 19 10.8954 19 12C19 13.1046 19.8954 14 21 14Z" stroke="black" stroke-width="2" stroke-linecap="round" stroke-linejoin="round"/>
<path d="M19 22C20.1046 22 21 21.1046 21 20C21 18.8954 20.1046 18 19 18C17.8954 18 17 18.8954 17 20C17 21.1046 17.8954 22 19 22Z" stroke="black" stroke-width="2" stroke-linecap="round" stroke-linejoin="round"/>
<path d="M19 6C20.1046 6 21 5.10457 21 4C21 2.89543 20.1046 2 19 2C17.8954 2 17 2.89543 17 4C17 5.10457 17.8954 6 19 6Z" stroke="black" stroke-width="2" stroke-linecap="round" stroke-linejoin="round"/>
</svg>
